<?xml version="1.0" standalone="no"?>
<!DOCTYPE svg PUBLIC "-//W3C//DTD SVG 20010904//EN"
 "http://www.w3.org/TR/2001/REC-SVG-20010904/DTD/svg10.dtd">
<svg version="1.0" xmlns="http://www.w3.org/2000/svg"
 width="512.000000pt" height="512.000000pt" viewBox="0 0 512.000000 512.000000"
 preserveAspectRatio="xMidYMid meet">

<g transform="translate(0.000000,512.000000) scale(0.100000,-0.100000)"
fill="#ffffff" stroke="none">
<path d="M3815 5106 c-38 -17 -142 -129 -201 -218 -174 -261 -251 -565 -270
-1065 l-7 -183 -101 0 c-334 0 -659 -51 -880 -136 -342 -132 -608 -398 -740
-740 -85 -221 -136 -546 -136 -880 l0 -101 -187 -7 c-411 -16 -677 -69 -905
-181 -178 -88 -357 -232 -379 -305 -30 -99 38 -190 141 -190 51 0 67 8 149 78
35 30 91 72 125 94 l60 39 413 -413 412 -412 -22 -38 c-11 -21 -51 -75 -87
-120 -92 -115 -100 -128 -100 -176 0 -105 91 -173 190 -143 73 22 214 197 303
377 110 222 159 454 179 857 l12 237 101 0 c236 0 503 30 690 76 398 100 711
344 879 688 115 236 169 503 183 906 l6 186 236 12 c404 20 630 67 853 177
178 88 357 232 379 305 30 99 -38 190 -141 190 -51 0 -69 -9 -145 -75 -58 -50
-128 -101 -171 -123 -18 -10 -59 28 -433 402 l-412 412 42 64 c23 36 65 92 94
125 66 76 75 94 75 148 0 105 -109 175 -205 133z m195 -1101 c167 -167 302
-306 300 -308 -21 -17 -282 -44 -499 -53 l-174 -7 7 174 c9 232 39 499 55 499
3 0 143 -137 311 -305z m-670 -762 c0 -181 -37 -552 -56 -573 -5 -5 -614 601
-614 611 0 20 337 55 543 58 l127 1 0 -97z m-576 -482 l409 -409 -34 -57 c-76
-125 -189 -239 -314 -314 l-57 -34 -409 409 c-225 225 -409 412 -409 415 0 21
111 171 170 229 58 59 208 170 229 170 3 0 190 -184 415 -409z m-614 -616
c167 -167 302 -306 300 -309 -21 -19 -392 -56 -574 -56 l-99 0 7 193 c7 212
38 477 55 477 3 0 143 -137 311 -305z m-670 -732 c0 -187 -38 -574 -59 -595
-3 -4 -143 129 -311 297 -167 167 -302 306 -300 309 19 18 373 52 573 55 l97
1 0 -67z"/>
</g>
</svg>
