<?xml version="1.0" standalone="no"?>
<!DOCTYPE svg PUBLIC "-//W3C//DTD SVG 20010904//EN"
 "http://www.w3.org/TR/2001/REC-SVG-20010904/DTD/svg10.dtd">
<svg version="1.0" xmlns="http://www.w3.org/2000/svg"
 width="512.000000pt" height="512.000000pt" viewBox="0 0 512.000000 512.000000"
 preserveAspectRatio="xMidYMid meet">

<g transform="translate(0.000000,512.000000) scale(0.100000,-0.100000)"
fill="#000000" stroke="none">
<path d="M570 4810 c-13 -8 -15 -160 -15 -1269 0 -693 4 -1263 8 -1268 5 -4
399 -10 875 -13 l867 -5 3 -257 2 -258 -95 0 c-102 0 -135 -9 -135 -39 0 -41
8 -41 525 -39 462 3 499 4 509 21 8 12 8 22 0 35 -9 14 -29 17 -113 20 l-101
3 0 259 0 260 818 0 c497 0 823 4 832 10 13 8 15 160 15 1270 0 1110 -2 1262
-15 1270 -9 6 -762 10 -1990 10 -1228 0 -1981 -4 -1990 -10z m3920 -1125 l0
-1055 -1930 0 -1930 0 0 1055 0 1055 1930 0 1930 0 0 -1055z m-2 -1242 l3
-103 -1931 0 -1930 0 0 98 c0 54 3 102 7 105 3 4 871 6 1927 5 l1921 -3 3
-102z m-1668 -443 l0 -260 -220 0 -220 0 0 253 c0 140 3 257 7 260 3 4 102 7
220 7 l213 0 0 -260z"/>
<path d="M3627 2474 c-12 -12 -8 -51 7 -63 9 -7 42 -11 87 -9 55 2 74 7 83 21
8 12 8 22 0 35 -9 13 -28 18 -91 20 -43 1 -82 0 -86 -4z"/>
<path d="M3892 2468 c-37 -37 3 -68 88 -68 69 0 100 14 100 44 0 27 -26 36
-100 36 -46 0 -81 -5 -88 -12z"/>
<path d="M4162 2468 c-15 -15 -15 -41 0 -56 7 -7 41 -12 84 -12 78 0 98 11 92
52 -3 22 -8 23 -83 26 -54 2 -84 -1 -93 -10z"/>
<path d="M977 1393 c-3 -5 -80 -244 -171 -531 -130 -412 -164 -528 -156 -543
10 -19 51 -19 1910 -19 1857 0 1900 0 1909 19 8 15 -25 132 -157 548 l-167
528 -1582 3 c-870 1 -1584 -1 -1586 -5z m3255 -533 c81 -256 148 -468 148
-472 0 -5 -819 -8 -1820 -8 -1001 0 -1820 3 -1820 6 0 7 291 927 297 937 2 4
689 6 1526 5 l1521 -3 148 -465z"/>
<path d="M1276 1174 c-9 -8 -16 -21 -16 -28 0 -29 28 -37 117 -34 85 3 88 4
91 27 6 38 -22 51 -104 51 -53 0 -77 -4 -88 -16z"/>
<path d="M1756 1177 c-11 -8 -17 -23 -14 -38 3 -23 6 -24 91 -27 93 -3 117 5
117 39 0 10 -9 23 -19 29 -28 15 -154 13 -175 -3z"/>
<path d="M2230 1170 c-16 -16 -18 -25 -10 -40 9 -18 21 -20 98 -20 86 0 112 8
112 36 0 31 -31 44 -106 44 -61 0 -78 -4 -94 -20z"/>
<path d="M2706 1174 c-9 -8 -16 -21 -16 -28 0 -28 26 -36 112 -36 77 0 89 2
98 20 8 15 6 24 -10 40 -16 16 -33 20 -94 20 -54 0 -79 -4 -90 -16z"/>
<path d="M3188 1179 c-10 -5 -18 -18 -18 -28 0 -34 24 -42 117 -39 85 3 88 4
91 27 3 15 -3 30 -14 38 -21 16 -151 17 -176 2z"/>
<path d="M3666 1177 c-11 -8 -17 -23 -14 -38 3 -23 6 -24 91 -27 89 -3 117 5
117 34 0 7 -7 20 -16 28 -20 20 -151 22 -178 3z"/>
<path d="M1272 878 c-18 -18 -15 -46 7 -58 11 -5 53 -10 94 -10 81 0 101 11
95 52 -3 22 -8 23 -93 26 -62 2 -94 -1 -103 -10z"/>
<path d="M1753 883 c-16 -6 -17 -45 -1 -61 15 -15 152 -16 179 -2 21 12 25 40
7 58 -12 12 -159 16 -185 5z"/>
<path d="M2221 872 c-7 -14 -6 -25 5 -40 13 -19 25 -22 94 -22 79 0 110 12
110 44 0 28 -26 36 -112 36 -75 0 -89 -3 -97 -18z"/>
<path d="M2702 878 c-16 -16 -15 -33 4 -52 11 -12 36 -16 94 -16 69 0 81 3 94
22 11 15 12 26 5 40 -8 15 -22 18 -97 18 -55 0 -92 -4 -100 -12z"/>
<path d="M3182 878 c-18 -18 -15 -46 8 -58 11 -6 55 -10 97 -8 59 2 78 7 87
21 8 12 8 22 0 35 -9 13 -28 18 -95 20 -57 2 -88 -1 -97 -10z"/>
<path d="M3657 883 c-11 -11 -8 -48 5 -61 15 -15 152 -16 179 -2 21 12 25 40
7 58 -13 13 -179 17 -191 5z"/>
<path d="M1278 589 c-10 -5 -18 -18 -18 -28 0 -34 24 -42 117 -39 83 3 88 4
91 26 6 41 -14 52 -97 52 -42 0 -84 -5 -93 -11z"/>
<path d="M1752 588 c-7 -7 -12 -19 -12 -28 0 -31 23 -40 105 -40 50 0 86 5 93
12 18 18 14 46 -7 58 -27 14 -164 13 -179 -2z"/>
<path d="M2226 578 c-11 -15 -12 -26 -5 -40 8 -15 22 -18 97 -18 86 0 112 8
112 36 0 32 -31 44 -110 44 -69 0 -81 -3 -94 -22z"/>
<path d="M2706 584 c-9 -8 -16 -21 -16 -28 0 -29 28 -37 117 -34 83 3 88 4 91
26 6 42 -14 52 -99 52 -57 0 -82 -4 -93 -16z"/>
<path d="M3188 589 c-10 -5 -18 -18 -18 -28 0 -34 24 -42 110 -39 66 2 85 7
94 21 8 12 8 22 0 35 -9 13 -27 17 -90 19 -43 2 -87 -2 -96 -8z"/>
<path d="M3660 586 c-6 -8 -10 -25 -8 -38 3 -22 8 -23 91 -26 93 -3 117 5 117
39 0 28 -32 39 -113 39 -53 0 -78 -4 -87 -14z"/>
</g>
</svg>
