<?xml version="1.0" standalone="no"?>
<!DOCTYPE svg PUBLIC "-//W3C//DTD SVG 20010904//EN"
 "http://www.w3.org/TR/2001/REC-SVG-20010904/DTD/svg10.dtd">
<svg version="1.0" xmlns="http://www.w3.org/2000/svg"
 width="512.000000pt" height="512.000000pt" viewBox="0 0 512.000000 512.000000"
 preserveAspectRatio="xMidYMid meet">

<g transform="translate(0.000000,512.000000) scale(0.100000,-0.100000)"
fill="#ffffff" stroke="none">
<path d="M1869 5105 c-42 -23 -55 -66 -42 -141 15 -86 53 -164 108 -223 79
-84 161 -122 295 -136 82 -8 138 -33 174 -76 56 -66 56 -68 56 -473 l0 -374
-22 -6 c-13 -3 -33 -6 -44 -6 -12 0 -62 -11 -110 -25 -355 -102 -633 -380
-759 -758 -64 -192 -65 -216 -65 -1198 0 -722 3 -896 14 -950 79 -373 425
-654 891 -724 531 -80 1078 180 1239 589 56 141 56 128 56 1085 0 982 -1 1006
-65 1198 -105 317 -326 572 -605 702 -69 32 -228 81 -264 81 -11 0 -31 3 -43
6 l-23 6 0 347 c0 192 -5 375 -11 411 -14 90 -49 160 -110 225 -73 77 -150
113 -280 131 -164 23 -223 76 -244 217 -4 27 -17 60 -29 73 -26 31 -81 40
-117 19z m591 -1785 c0 -100 -4 -160 -10 -160 -21 0 -94 -77 -113 -120 -17
-37 -22 -72 -25 -197 l-4 -153 -319 0 c-176 0 -319 2 -319 4 0 21 58 195 84
251 91 196 284 393 461 470 61 27 186 64 218 64 l27 1 0 -160z m304 144 c253
-66 485 -265 602 -519 26 -56 84 -230 84 -251 0 -2 -143 -4 -319 -4 l-319 0
-4 153 c-3 125 -8 160 -25 197 -19 43 -92 120 -113 120 -6 0 -10 60 -10 160 0
184 -8 173 104 144z m-166 -486 c9 -9 12 -83 12 -269 0 -221 -2 -260 -16 -273
-8 -9 -24 -16 -34 -16 -10 0 -26 7 -34 16 -14 13 -16 52 -16 273 0 275 1 281
50 281 14 0 31 -5 38 -12z m-283 -515 c12 -76 25 -110 60 -150 98 -115 272
-115 370 0 35 40 48 74 60 150 l6 37 330 0 330 0 -3 -857 c-3 -855 -3 -858
-25 -923 -34 -99 -90 -185 -174 -265 -178 -170 -419 -257 -709 -257 -290 0
-531 87 -709 257 -84 80 -140 166 -174 265 -22 65 -22 68 -25 923 l-3 857 330
0 330 0 6 -37z"/>
</g>
</svg>
