<?xml version="1.0" standalone="no"?>
<!DOCTYPE svg PUBLIC "-//W3C//DTD SVG 20010904//EN"
 "http://www.w3.org/TR/2001/REC-SVG-20010904/DTD/svg10.dtd">
<svg version="1.0" xmlns="http://www.w3.org/2000/svg"
 width="512.000000pt" height="512.000000pt" viewBox="0 0 512.000000 512.000000"
 preserveAspectRatio="xMidYMid meet">

<g transform="translate(0.000000,512.000000) scale(0.100000,-0.100000)"
fill="#ffffff" stroke="none">
<path d="M2975 4466 c-94 -41 -124 -168 -58 -247 50 -59 49 -59 555 -59 l463
0 -682 -682 c-740 -741 -706 -702 -688 -795 9 -49 69 -109 118 -118 92 -18 55
-50 792 683 l680 677 5 -472 c5 -457 6 -472 26 -499 39 -53 71 -69 134 -69 63
0 95 16 134 69 21 27 21 36 21 726 0 690 0 699 -21 726 -11 15 -33 37 -48 48
-27 21 -38 21 -714 23 -556 2 -693 0 -717 -11z"/>
<path d="M1258 4150 c-276 -48 -502 -251 -590 -530 l-23 -75 0 -1145 0 -1145
23 -75 c80 -253 259 -432 512 -512 l75 -23 1145 0 1145 0 75 23 c256 81 432
256 512 512 23 74 23 83 23 492 0 405 -1 417 -21 444 -39 53 -71 69 -134 69
-63 0 -95 -16 -134 -69 -20 -26 -21 -43 -26 -429 -5 -380 -6 -405 -27 -454
-46 -114 -146 -212 -256 -250 -49 -17 -119 -18 -1157 -18 -1038 0 -1108 1
-1157 18 -113 39 -221 147 -260 260 -17 49 -18 119 -18 1157 0 1038 1 1108 18
1157 38 110 136 210 250 256 49 21 74 22 454 27 386 5 403 6 429 26 53 39 69
71 69 134 0 63 -16 95 -69 134 -27 20 -40 21 -419 22 -216 1 -413 -2 -439 -6z"/>
</g>
</svg>
