<?xml version="1.0" standalone="no"?>
<!DOCTYPE svg PUBLIC "-//W3C//DTD SVG 20010904//EN"
 "http://www.w3.org/TR/2001/REC-SVG-20010904/DTD/svg10.dtd">
<svg version="1.0" xmlns="http://www.w3.org/2000/svg"
 width="512.000000pt" height="512.000000pt" viewBox="0 0 512.000000 512.000000"
 preserveAspectRatio="xMidYMid meet">

<g transform="translate(0.000000,512.000000) scale(0.100000,-0.100000)"
fill="#fffffff" stroke="none">
<path d="M2775 5106 c-59 -27 -95 -85 -95 -152 l0 -34 -70 0 c-264 0 -493
-143 -601 -375 -20 -44 -42 -105 -48 -135 -13 -60 -16 -211 -5 -257 17 -73
427 -1505 445 -1553 82 -220 264 -448 465 -579 l80 -52 218 -515 219 -514 -5
-113 c-6 -127 -27 -199 -82 -282 -126 -188 -351 -280 -564 -230 -180 43 -333
186 -393 370 -10 30 -14 194 -19 680 l-6 640 -27 90 c-88 284 -294 495 -567
583 -498 161 -1028 -168 -1110 -688 -5 -36 -10 -160 -10 -276 l0 -212 -34 -6
c-56 -11 -157 -56 -226 -101 -341 -224 -441 -679 -223 -1024 99 -158 278 -286
463 -332 71 -18 269 -18 340 0 274 68 492 286 561 561 20 80 18 280 -4 355
-41 140 -94 232 -191 334 -94 98 -242 186 -349 206 l-37 7 0 202 c0 238 8 294
60 401 83 174 260 295 453 311 160 14 322 -45 435 -156 70 -70 103 -121 141
-219 l26 -66 5 -645 c6 -632 7 -647 29 -720 30 -99 99 -231 161 -307 183 -222
488 -338 770 -292 202 32 403 150 524 308 120 156 175 319 176 516 l0 100 221
520 c121 286 225 522 230 524 6 2 45 26 87 54 98 66 242 209 310 310 109 158
127 211 363 1034 192 669 221 780 226 858 11 188 -53 353 -191 491 -130 130
-284 193 -468 194 l-78 0 0 40 c0 94 -57 155 -147 155 -56 0 -90 -18 -127 -69
-20 -26 -21 -41 -21 -276 0 -235 1 -250 21 -276 37 -51 71 -69 127 -69 90 0
147 61 147 156 l0 41 88 -4 c101 -5 174 -33 241 -93 56 -51 102 -147 108 -228
5 -60 -7 -106 -211 -821 -119 -417 -229 -786 -245 -821 -137 -301 -440 -509
-777 -532 -360 -24 -720 191 -875 522 -24 53 -107 326 -248 820 -232 814 -233
817 -191 929 23 61 85 136 140 171 53 33 134 55 206 55 l61 0 5 -51 c5 -53 26
-89 72 -123 40 -30 120 -29 165 3 56 41 61 64 61 321 0 256 -5 281 -60 320
-39 28 -105 35 -145 16z m755 -3285 c52 0 119 4 148 8 46 7 53 5 49 -8 -12
-46 -193 -459 -198 -453 -5 5 -174 402 -196 457 -3 8 12 9 49 4 29 -4 96 -8
148 -8z m-2688 -612 c87 -18 158 -58 223 -123 258 -259 118 -696 -244 -758
-56 -9 -86 -9 -142 0 -362 62 -504 502 -244 757 113 112 257 155 407 124z"/>
<path d="M678 899 c-43 -22 -78 -81 -78 -129 0 -74 76 -150 149 -150 77 0 151
74 151 150 0 50 -35 107 -80 130 -49 25 -94 25 -142 -1z"/>
</g>
</svg>
